<mxfile host="app.diagrams.net" modified="2024-05-06T00:36:14.937Z" agent="Mozilla/5.0 (Windows NT 10.0; Win64; x64) AppleWebKit/537.36 (KHTML, like Gecko) Chrome/121.0.0.0 Safari/537.36 OPR/107.0.0.0" version="24.3.1" etag="LZVi1t6vKzUtaNjvgbPs" type="github">
  <diagram name="PÃ¡gina-1" id="OCnyQaw5AGzMZulQSEWM">
    <mxGraphModel>
      <root>
        <mxCell id="0" />
        <mxCell id="1" parent="0" />
      </root>
    </mxGraphModel>
  </diagram>
</mxfile>
